<?xml version="1.0" encoding="iso-8859-1"?>
<!-- Generator: Adobe Illustrator 19.0.0, SVG Export Plug-In . SVG Version: 6.00 Build 0)  -->
<svg version="1.1" id="Capa_1" xmlns="http://www.w3.org/2000/svg" xmlns:xlink="http://www.w3.org/1999/xlink" x="0px" y="0px"
	 viewBox="0 0 512.8 512.8" style="enable-background:new 0 0 512.8 512.8;" xml:space="preserve">
<polygon style="fill:#FFFFFF;" points="450.4,504.4 380,504.4 390.4,461.2 440,461.2 "/>
<rect x="326.4" y="323.6" style="fill:#E1E6E9;" width="177.6" height="137.6"/>
<polygon style="fill:#FFFFFF;" points="132,504.4 61.6,504.4 72,461.2 121.6,461.2 "/>
<rect x="8" y="323.6" style="fill:#2EA2DB;" width="177.6" height="137.6"/>
<g>
	<polygon style="fill:#FFFFFF;" points="132,189.2 61.6,189.2 72,146 121.6,146 	"/>
	<rect x="8" y="8.4" style="fill:#FFFFFF;" width="177.6" height="137.6"/>
</g>
<g>
	<rect x="360" y="384.4" style="fill:#193651;" width="16" height="16"/>
	<rect x="407.2" y="384.4" style="fill:#193651;" width="16" height="16"/>
	<rect x="454.4" y="384.4" style="fill:#193651;" width="16" height="16"/>
	<rect x="41.6" y="384.4" style="fill:#193651;" width="16" height="16"/>
	<rect x="88.8" y="384.4" style="fill:#193651;" width="16" height="16"/>
	<rect x="136" y="384.4" style="fill:#193651;" width="16" height="16"/>
	<rect x="41.6" y="69.2" style="fill:#193651;" width="16" height="16"/>
	<rect x="88.8" y="69.2" style="fill:#193651;" width="16" height="16"/>
	<rect x="136" y="69.2" style="fill:#193651;" width="16" height="16"/>
</g>
<path style="fill:#FFFFFF;" d="M461.6,135.6c0-0.8,0-1.6,0-2.4c0-35.2-28.8-64-64-64c-24,0-44.8,12.8-56,32.8
	c-8-6.4-18.4-10.4-29.6-10.4c-24.8,0-45.6,20-45.6,45.6v0.8c-21.6,8.8-36.8,29.6-36.8,54.4c0,32,26.4,58.4,58.4,58.4h156.8
	c32,0,58.4-26.4,58.4-58.4C504,165.2,486.4,142.8,461.6,135.6z"/>
<path style="fill:#193651;" d="M318.4,398.8h-9.6c-18.4,0-33.6-15.2-33.6-33.6V256.4c4.8,0.8,9.6,1.6,14.4,1.6h156.8
	c36.8,0,66.4-29.6,66.4-66.4c0-27.2-16.8-52-42.4-61.6c-1.6-37.6-32-67.2-69.6-68v-3.2c0-32-26.4-58.4-58.4-58.4H0V154h61.6
	l-6.4,27.2h-9.6v16H148v-16h-9.6L132,154h61.6V16.4h148c23.2,0,42.4,19.2,42.4,42.4v4.8c-17.6,3.2-33.6,13.6-44,28
	c-8-4.8-17.6-7.2-27.2-7.2c-28,0-51.2,21.6-53.6,48.8c-22.4,11.2-36.8,33.6-36.8,59.2c0,17.6,7.2,33.6,18.4,45.6h-96
	c-29.6,0-54.4,24-54.4,54.4v24.8H0v153.6h61.6l-6.4,25.6h-9.6v16H148v-16h-9.6l-6.4-27.2h61.6V315.6h-86.4v-24.8
	c0-20.8,16.8-38.4,38.4-38.4h113.6v111.2c0,27.2,22.4,49.6,49.6,49.6h9.6v54.4H380l-6.4,28.8H364v16h102.4v-16h-9.6l-6.4-27.2H512
	V315.6H318.4V398.8z M72,181.2l6.4-27.2H116l6.4,27.2H72z M177.6,138H16V16.4h161.6V138z M72,496.4l6.4-27.2H116l6.4,27.2H72z
	 M177.6,331.6v121.6H16V331.6H177.6z M268.8,237.2c-17.6-8-29.6-25.6-29.6-45.6c0-20.8,12.8-39.2,32-46.4l4.8-2.4v-5.6
	c0-20.8,16.8-37.6,37.6-37.6c8.8,0,17.6,3.2,24,8.8l7.2,6.4l4.8-8.8c9.6-17.6,28.8-28.8,48.8-28.8c31.2,0,56,24.8,56,56v8l6.4,1.6
	c21.6,6.4,36,25.6,36,48c0,28-22.4,50.4-50.4,50.4H288.8c-4.8,0-9.6-0.8-14.4-2.4L268.8,237.2z M389.6,496.4l6.4-27.2h37.6l6.4,27.2
	H389.6z M334.4,331.6H496v121.6H334.4V331.6z"/>
<g>
</g>
<g>
</g>
<g>
</g>
<g>
</g>
<g>
</g>
<g>
</g>
<g>
</g>
<g>
</g>
<g>
</g>
<g>
</g>
<g>
</g>
<g>
</g>
<g>
</g>
<g>
</g>
<g>
</g>
</svg>
