<?xml version="1.0" encoding="iso-8859-1"?>
<!-- Generator: Adobe Illustrator 19.0.0, SVG Export Plug-In . SVG Version: 6.00 Build 0)  -->
<svg version="1.1" id="Capa_1" xmlns="http://www.w3.org/2000/svg" xmlns:xlink="http://www.w3.org/1999/xlink" x="0px" y="0px"
	 viewBox="0 0 512 512" style="enable-background:new 0 0 512 512;" xml:space="preserve">
<path style="fill:#193651;" d="M433.2,487.2h-16v-16h16V487.2z M401.2,487.2h-16v-16h16V487.2z M369.2,487.2h-16v-16h16V487.2z
	 M337.2,487.2h-16v-16h16V487.2z M305.2,487.2h-16v-16h16V487.2z M273.2,487.2h-16v-16h16V487.2z M241.2,487.2h-16v-16h16V487.2z
	 M209.2,487.2h-16v-16h16V487.2z M177.2,487.2h-16v-16h16V487.2z M145.2,487.2h-16v-16h16V487.2z M113.2,487.2h-16v-16h16V487.2z
	 M41.2,438.4h-16v-16h16V438.4z M486.8,413.6h-16v-16h16V413.6z M41.2,406.4h-16v-16h16V406.4z M486.8,381.6h-16v-16h16V381.6z
	 M41.2,374.4h-16v-16h16V374.4z M486.8,349.6h-16v-16h16V349.6z M41.2,342.4h-16v-16h16V342.4z M486.8,317.6h-16v-16h16V317.6z
	 M41.2,310.4h-16v-16h16V310.4z M486.8,285.6h-16v-16h16V285.6z M41.2,278.4h-16v-16h16V278.4z M486.8,253.6h-16v-16h16V253.6z
	 M41.2,246.4h-16v-16h16V246.4z M486.8,221.6h-16v-16h16V221.6z M41.2,214.4h-16v-16h16V214.4z M486.8,189.6h-16v-16h16V189.6z
	 M41.2,182.4h-16v-16h16V182.4z M486.8,157.6h-16v-16h16V157.6z M41.2,150.4h-16v-16h16V150.4z M486.8,125.6h-16v-16h16V125.6z
	 M41.2,118.4h-16v-16h16V118.4z M486.8,93.6h-16v-16h16V93.6z M41.2,86.4h-16v-16h16V86.4z M443.6,40.8h-16v-16h16V40.8z
	 M411.6,40.8h-16v-16h16V40.8z M379.6,40.8h-16v-16h16V40.8z M347.6,40.8h-16v-16h16V40.8z M315.6,40.8h-16v-16h16V40.8z
	 M283.6,40.8h-16v-16h16V40.8z M251.6,40.8h-16v-16h16V40.8z M219.6,40.8h-16v-16h16V40.8z M187.6,40.8h-16v-16h16V40.8z
	 M155.6,40.8h-16v-16h16V40.8z M123.6,40.8h-16v-16h16V40.8z M91.6,40.8h-16v-16h16V40.8z"/>
<rect x="65.2" y="64.8" style="fill:#E1E6E9;" width="382.4" height="382.4"/>
<g>
	<rect x="8.4" y="454.4" style="fill:#FFFFFF;" width="49.6" height="49.6"/>
	<rect x="8.4" y="8" style="fill:#FFFFFF;" width="49.6" height="49.6"/>
	<rect x="97.2" y="364.8" style="fill:#FFFFFF;" width="49.6" height="49.6"/>
	<rect x="97.2" y="276" style="fill:#FFFFFF;" width="49.6" height="49.6"/>
	<rect x="97.2" y="186.4" style="fill:#FFFFFF;" width="49.6" height="49.6"/>
	<rect x="97.2" y="97.6" style="fill:#FFFFFF;" width="49.6" height="49.6"/>
	<rect x="186.8" y="364.8" style="fill:#FFFFFF;" width="49.6" height="49.6"/>
	<rect x="186.8" y="276" style="fill:#FFFFFF;" width="49.6" height="49.6"/>
	<rect x="186.8" y="186.4" style="fill:#FFFFFF;" width="49.6" height="49.6"/>
	<rect x="186.8" y="97.6" style="fill:#FFFFFF;" width="49.6" height="49.6"/>
	<rect x="275.6" y="364.8" style="fill:#FFFFFF;" width="49.6" height="49.6"/>
	<rect x="275.6" y="276" style="fill:#FFFFFF;" width="49.6" height="49.6"/>
	<rect x="275.6" y="186.4" style="fill:#FFFFFF;" width="49.6" height="49.6"/>
	<rect x="275.6" y="97.6" style="fill:#FFFFFF;" width="49.6" height="49.6"/>
	<rect x="365.2" y="364.8" style="fill:#FFFFFF;" width="49.6" height="49.6"/>
	<rect x="365.2" y="276" style="fill:#FFFFFF;" width="49.6" height="49.6"/>
	<rect x="365.2" y="186.4" style="fill:#FFFFFF;" width="49.6" height="49.6"/>
	<rect x="365.2" y="97.6" style="fill:#FFFFFF;" width="49.6" height="49.6"/>
	<rect x="454" y="454.4" style="fill:#FFFFFF;" width="49.6" height="49.6"/>
	<rect x="454" y="8" style="fill:#FFFFFF;" width="49.6" height="49.6"/>
</g>
<g>
	<path style="fill:#193651;" d="M89.2,411.2l-34.4,34.4H0.4V512H66v-54.4l34.4-34.4h54.4v-65.6H89.2V411.2z M50,496H16.4v-33.6H50
		V496z M105.2,372.8h33.6v33.6h-33.6C105.2,406.4,105.2,372.8,105.2,372.8z"/>
	<path style="fill:#193651;" d="M89.2,333.6h65.6V268H89.2V333.6z M105.2,284h33.6v33.6h-33.6C105.2,317.6,105.2,284,105.2,284z"/>
	<path style="fill:#193651;" d="M89.2,244h65.6v-65.6H89.2V244z M105.2,194.4h33.6V228h-33.6C105.2,228,105.2,194.4,105.2,194.4z"/>
	<path style="fill:#193651;" d="M178.8,422.4h65.6v-65.6h-65.6L178.8,422.4L178.8,422.4z M194.8,372.8h33.6v33.6h-33.6L194.8,372.8
		L194.8,372.8z"/>
	<path style="fill:#193651;" d="M178.8,333.6h65.6V268h-65.6L178.8,333.6L178.8,333.6z M194.8,284h33.6v33.6h-33.6L194.8,284
		L194.8,284z"/>
	<path style="fill:#193651;" d="M178.8,244h65.6v-65.6h-65.6L178.8,244L178.8,244z M194.8,194.4h33.6V228h-33.6L194.8,194.4
		L194.8,194.4z"/>
	<path style="fill:#193651;" d="M178.8,155.2h65.6V89.6h-65.6L178.8,155.2L178.8,155.2z M194.8,105.6h33.6v33.6h-33.6L194.8,105.6
		L194.8,105.6z"/>
	<path style="fill:#193651;" d="M267.6,422.4h65.6v-65.6h-65.6V422.4z M283.6,372.8h33.6v33.6h-33.6V372.8z"/>
	<path style="fill:#193651;" d="M267.6,333.6h65.6V268h-65.6V333.6z M283.6,284h33.6v33.6h-33.6V284z"/>
	<path style="fill:#193651;" d="M267.6,244h65.6v-65.6h-65.6V244z M283.6,194.4h33.6V228h-33.6V194.4z"/>
	<path style="fill:#193651;" d="M267.6,155.2h65.6V89.6h-65.6V155.2z M283.6,105.6h33.6v33.6h-33.6V105.6z"/>
	<path style="fill:#193651;" d="M422.8,268h-65.6v65.6h65.6V268z M406.8,317.6h-33.6V284h33.6V317.6z"/>
	<path style="fill:#193651;" d="M422.8,178.4h-65.6V244h65.6V178.4z M406.8,228h-33.6v-33.6h33.6V228z"/>
	<path style="fill:#193651;" d="M446,0v54.4l-34.4,34.4h-54.4v65.6h65.6V100l34.4-34.4h54.4V0H446z M406.8,139.2h-33.6v-33.6h33.6
		V139.2z M496.4,49.6h-33.6V16h33.6V49.6z"/>
	<path style="fill:#193651;" d="M66,54.4V0H0.4v65.6h54.4L89.2,100v54.4h65.6V88.8h-54.4L66,54.4z M50,49.6H16.4V16H50V49.6z
		 M105.2,105.6h33.6v33.6h-33.6C105.2,139.2,105.2,105.6,105.2,105.6z"/>
	<path style="fill:#193651;" d="M422.8,411.2v-54.4h-65.6v65.6h54.4l34.4,34.4V512h65.6v-65.6h-54.4L422.8,411.2z M406.8,406.4
		h-33.6v-33.6h33.6V406.4z M462,462.4h33.6V496H462V462.4z"/>
</g>
<g>
</g>
<g>
</g>
<g>
</g>
<g>
</g>
<g>
</g>
<g>
</g>
<g>
</g>
<g>
</g>
<g>
</g>
<g>
</g>
<g>
</g>
<g>
</g>
<g>
</g>
<g>
</g>
<g>
</g>
</svg>
