<svg height="512pt" viewBox="0 0 512 512" width="512pt" xmlns="http://www.w3.org/2000/svg"><path d="m255.859375 265.898438h-255.859375v-209.621094c0-31.082032 25.195312-56.277344 56.277344-56.277344h199.582031zm0 0" fill="#e63950"/><path d="m167.53125 247.472656c9.226562-10.089844 14.652344-23.71875 13.988281-38.621094-1.234375-27.652343-23.816406-50.089843-51.476562-51.148437-30.589844-1.175781-55.753907 23.273437-55.753907 53.601563 0 13.953124 5.328126 26.65625 14.0625 36.195312 3.027344 3.304688.621094 8.640625-3.863281 8.640625h-84.488281v199.582031c0 31.082032 25.195312 56.277344 56.277344 56.277344h209.621094v-255.859375h-94.53125c-4.5 0-6.871094-5.34375-3.835938-8.667969zm0 0" fill="#60b8ff"/><path d="m228.859375 256.132812h27v255.867188h-27zm0 0" fill="#22a7ff"/><path d="m255.859375 246.097656v88.691406c0 4.117188-4.566406 6.59375-8.011719 4.339844-9.242187-6.039062-20.457031-9.304687-32.472656-8.609375-27.363281 1.585938-49.375 24.078125-50.410156 51.46875-1.15625 30.570313 23.285156 55.722657 53.601562 55.722657 10.832032 0 20.90625-3.214844 29.339844-8.742188 3.414062-2.238281 7.953125.300781 7.953125 4.386719v78.644531h199.582031c31.082032 0 56.277344-25.195312 56.277344-56.277344v-209.625zm0 0" fill="#ffa812"/><path d="m511.71875 56.277344c0-31.082032-25.195312-56.277344-56.277344-56.277344h-209.621094v255.859375h94.53125c4.5 0 6.871094 5.34375 3.835938 8.667969-9.226562 10.089844-14.648438 23.71875-13.988281 38.621094 1.234375 27.652343 23.816406 50.089843 51.476562 51.148437 30.589844 1.175781 55.753907-23.273437 55.753907-53.601563 0-13.953124-5.328126-26.65625-14.0625-36.195312-3.027344-3.304688-.621094-8.640625 3.863281-8.640625h84.488281zm0 0" fill="#6fd6a2"/><path d="m228.785156 0h27.074219v255.867188h-27.074219zm0 0" fill="#cc2e43"/><path d="m511.71875 256.132812v199.59375c0 31.078126-25.195312 56.273438-56.273438 56.273438h-24.820312c31.078125 0 56.730469-25.195312 56.730469-56.273438v-199.59375zm0 0" fill="#ff9a00"/><path d="m511.714844 56.273438v199.59375h-24.359375v-199.59375c0-31.078126-25.195313-56.273438-56.285157-56.273438h24.371094c31.078125 0 56.273438 25.195312 56.273438 56.273438zm0 0" fill="#43cd8e"/></svg>