<?xml version="1.0" encoding="iso-8859-1"?>
<!-- Generator: Adobe Illustrator 19.0.0, SVG Export Plug-In . SVG Version: 6.00 Build 0)  -->
<svg version="1.1" id="Capa_1" xmlns="http://www.w3.org/2000/svg" xmlns:xlink="http://www.w3.org/1999/xlink" x="0px" y="0px"
	 viewBox="0 0 512 512" style="enable-background:new 0 0 512 512;" xml:space="preserve">
<g>
	<path style="fill:#29485A;" d="M256,150.069c-4.873,0-8.828-3.955-8.828-8.828V88.276c0-4.873,3.955-8.828,8.828-8.828
		s8.828,3.955,8.828,8.828v52.966C264.828,146.114,260.873,150.069,256,150.069z"/>
	<path style="fill:#29485A;" d="M256,238.345c-4.873,0-8.828-3.955-8.828-8.828v-35.31c0-4.873,3.955-8.828,8.828-8.828
		s8.828,3.955,8.828,8.828v35.31C264.828,234.39,260.873,238.345,256,238.345z"/>
	<path style="fill:#29485A;" d="M194.207,273.655h-70.621c-4.873,0-8.828-3.955-8.828-8.828s3.955-8.828,8.828-8.828h70.621
		c4.873,0,8.828,3.955,8.828,8.828S199.08,273.655,194.207,273.655z"/>
	<path style="fill:#29485A;" d="M388.414,273.655h-70.621c-4.873,0-8.828-3.955-8.828-8.828S312.92,256,317.793,256h70.621
		c4.873,0,8.828,3.955,8.828,8.828S393.287,273.655,388.414,273.655z"/>
	<path style="fill:#29485A;" d="M61.793,414.897c-4.873,0-8.828-3.955-8.828-8.828V300.138c0-4.873,3.955-8.828,8.828-8.828
		s8.828,3.955,8.828,8.828v105.931C70.621,410.942,66.666,414.897,61.793,414.897z"/>
	<path style="fill:#29485A;" d="M203.034,467.862h-88.276c-4.873,0-8.828-3.955-8.828-8.828s3.955-8.828,8.828-8.828h88.276
		c4.873,0,8.828,3.955,8.828,8.828S207.907,467.862,203.034,467.862z"/>
	<path style="fill:#29485A;" d="M450.207,414.897c-4.873,0-8.828-3.955-8.828-8.828V300.138c0-4.873,3.955-8.828,8.828-8.828
		c4.873,0,8.828,3.955,8.828,8.828v105.931C459.034,410.942,455.08,414.897,450.207,414.897z"/>
	<path style="fill:#29485A;" d="M450.207,238.345c-4.873,0-8.828-3.955-8.828-8.828v-61.793H335.448
		c-4.873,0-8.828-3.955-8.828-8.828c0-4.873,3.955-8.828,8.828-8.828h114.759c4.873,0,8.828,3.955,8.828,8.828v70.621
		C459.034,234.39,455.08,238.345,450.207,238.345z"/>
</g>
<path style="fill:#0071BC;" d="M185.379,0h141.241c9.754,0,17.655,7.901,17.655,17.655v52.966c0,9.754-7.901,17.655-17.655,17.655
	H185.379c-9.754,0-17.655-7.901-17.655-17.655V17.655C167.724,7.901,175.625,0,185.379,0z"/>
<path style="fill:#29ABE2;" d="M211.862,229.517h88.276c9.754,0,17.655,7.901,17.655,17.655v35.31
	c0,9.754-7.901,17.655-17.655,17.655h-88.276c-9.754,0-17.655-7.901-17.655-17.655v-35.31
	C194.207,237.418,202.108,229.517,211.862,229.517z"/>
<path style="fill:#ED1C24;" d="M17.655,229.517h88.276c9.754,0,17.655,7.901,17.655,17.655v35.31
	c0,9.754-7.901,17.655-17.655,17.655H17.655C7.901,300.138,0,292.237,0,282.483v-35.31C0,237.418,7.901,229.517,17.655,229.517z"/>
<path style="fill:#39B54A;" d="M406.069,229.517h88.276c9.754,0,17.655,7.901,17.655,17.655v35.31
	c0,9.754-7.901,17.655-17.655,17.655h-88.276c-9.754,0-17.655-7.901-17.655-17.655v-35.31
	C388.414,237.418,396.314,229.517,406.069,229.517z"/>
<path style="fill:#FBB03B;" d="M256,123.586l-105.931,35.31L256,194.207l105.931-35.31L256,123.586z"/>
<circle style="fill:#29ABE2;" cx="61.793" cy="459.034" r="52.966"/>
<circle style="fill:#FBB03B;" cx="256" cy="459.034" r="52.966"/>
<circle style="fill:#ED1C24;" cx="450.207" cy="459.034" r="52.966"/>
<g>
</g>
<g>
</g>
<g>
</g>
<g>
</g>
<g>
</g>
<g>
</g>
<g>
</g>
<g>
</g>
<g>
</g>
<g>
</g>
<g>
</g>
<g>
</g>
<g>
</g>
<g>
</g>
<g>
</g>
</svg>
