<?xml version="1.0" encoding="iso-8859-1"?>
<!-- Generator: Adobe Illustrator 19.0.0, SVG Export Plug-In . SVG Version: 6.00 Build 0)  -->
<svg version="1.1" id="Capa_1" xmlns="http://www.w3.org/2000/svg" xmlns:xlink="http://www.w3.org/1999/xlink" x="0px" y="0px"
	 viewBox="0 0 480.084 480.084" style="enable-background:new 0 0 480.084 480.084;" xml:space="preserve">
<path style="fill:#0071BC;" d="M176.042,8h128c8.837,0,16,7.163,16,16v48c0,8.837-7.163,16-16,16h-128c-8.837,0-16-7.163-16-16V24
	C160.042,15.163,167.205,8,176.042,8z"/>
<path style="fill:#29ABE2;" d="M200.042,216h80c8.837,0,16,7.163,16,16v32c0,8.837-7.163,16-16,16h-80c-8.837,0-16-7.163-16-16v-32
	C184.042,223.163,191.205,216,200.042,216z"/>
<path style="fill:#ED1C24;" d="M24.042,216h80c8.837,0,16,7.163,16,16v32c0,8.837-7.163,16-16,16h-80c-8.837,0-16-7.163-16-16v-32
	C8.042,223.163,15.205,216,24.042,216z"/>
<path style="fill:#39B54A;" d="M376.042,216h80c8.837,0,16,7.163,16,16v32c0,8.837-7.163,16-16,16h-80c-8.837,0-16-7.163-16-16v-32
	C360.042,223.163,367.205,216,376.042,216z"/>
<path style="fill:#FBB03B;" d="M240.042,120l-96,32l96,32l96-32L240.042,120z"/>
<circle style="fill:#29ABE2;" cx="64.042" cy="424" r="48"/>
<circle style="fill:#FBB03B;" cx="240.042" cy="424" r="48"/>
<circle style="fill:#ED1C24;" cx="416.042" cy="424" r="48"/>
<path d="M24.042,288h32v80.64C25.425,373.016,4.153,401.383,8.529,432s32.743,51.889,63.36,47.513
	c24.636-3.521,43.992-22.878,47.513-47.513h65.28c4.418,30.611,32.815,51.844,63.426,47.426s51.844-32.815,47.426-63.426
	s-32.815-51.844-63.426-47.426c-24.574,3.547-43.879,22.852-47.426,47.426h-65.28c-3.566-24.528-22.832-43.794-47.36-47.36V288h32
	c13.255,0,24-10.745,24-24v-8h48v8c0,13.255,10.745,24,24,24h80c13.255,0,24-10.745,24-24v-8h48v8c0,13.255,10.745,24,24,24h32
	v80.64c-30.611,4.418-51.844,32.815-47.426,63.426s32.815,51.844,63.426,47.426s51.844-32.815,47.426-63.426
	c-3.547-24.574-22.852-43.879-47.426-47.426V288h32c13.255,0,24-10.745,24-24v-32c0-13.255-10.745-24-24-24h-32v-56
	c0-4.418-3.582-8-8-8H337.33l-89.288-29.76V96h56c13.255,0,24-10.745,24-24V24c0-13.255-10.745-24-24-24h-128
	c-13.255,0-24,10.745-24,24v48c0,13.255,10.745,24,24,24h56v18.24l-90.528,30.176c-4.197,1.38-6.482,5.901-5.102,10.098
	c0.794,2.415,2.687,4.308,5.102,5.102l90.528,30.144V208h-32c-13.255,0-24,10.745-24,24v8h-48v-8c0-13.255-10.745-24-24-24h-80
	c-13.255,0-24,10.745-24,24v32C0.042,277.255,10.787,288,24.042,288z M240.042,384c22.091,0,40,17.909,40,40s-17.909,40-40,40
	s-40-17.909-40-40C200.068,401.92,217.961,384.026,240.042,384z M104.042,424c0,22.091-17.909,40-40,40s-40-17.909-40-40
	s17.909-40,40-40C86.122,384.026,104.015,401.92,104.042,424z M456.042,424c0,22.091-17.909,40-40,40s-40-17.909-40-40
	s17.909-40,40-40C438.122,384.026,456.015,401.92,456.042,424z M168.042,72V24c0-4.418,3.582-8,8-8h128c4.418,0,8,3.582,8,8v48
	c0,4.418-3.582,8-8,8h-128C171.624,80,168.042,76.418,168.042,72z M464.042,232v32c0,4.418-3.582,8-8,8h-80c-4.418,0-8-3.582-8-8
	v-32c0-4.418,3.582-8,8-8h80C460.46,224,464.042,227.582,464.042,232z M240.042,128.432L310.746,152l-70.704,23.568L169.338,152
	L240.042,128.432z M248.042,189.76L337.33,160h70.712v48h-32c-13.255,0-24,10.745-24,24v8h-48v-8c0-13.255-10.745-24-24-24h-32
	V189.76z M192.042,232c0-4.418,3.582-8,8-8h80c4.418,0,8,3.582,8,8v32c0,4.418-3.582,8-8,8h-80c-4.418,0-8-3.582-8-8V232z
	 M16.042,232c0-4.418,3.582-8,8-8h80c4.418,0,8,3.582,8,8v32c0,4.418-3.582,8-8,8h-80c-4.418,0-8-3.582-8-8V232z"/>
<g>
</g>
<g>
</g>
<g>
</g>
<g>
</g>
<g>
</g>
<g>
</g>
<g>
</g>
<g>
</g>
<g>
</g>
<g>
</g>
<g>
</g>
<g>
</g>
<g>
</g>
<g>
</g>
<g>
</g>
</svg>
