<svg id="Layer_5" enable-background="new 0 0 64 64" height="512" viewBox="0 0 64 64" width="512" xmlns="http://www.w3.org/2000/svg"><path d="m63 6.243c0-2.891-2.352-5.243-5.243-5.243-1.4 0-2.717.545-3.707 1.536l-11.05 11.05v-4.586h-42v54h42v-34.586l18.464-18.464c.991-.991 1.536-2.307 1.536-3.707zm-32 45.757c0 .552-.449 1-1 1s-1-.448-1-1 .449-1 1-1 1 .448 1 1zm-8-9v-12h8.109c.308 1.111 1.295 1.933 2.489 1.988l-5.598 5.598-2.293-2.293-1.414 1.414 3.707 3.707 7.707-7.707-.916-.916 2.209-.737v10.946zm10.949-12.037c-.453.148-.949-.209-.949-.684 0-.078.013-.154.037-.228l1.4-4.2 3.712 3.712zm1.465-6.963 12.586-12.586 1.586 1.586-12.586 12.586zm4.586 4.586-1.586-1.586 12.586-12.586 1.586 1.586zm9.414-18.586 1.586-1.586 4.586 4.586-1.586 1.586zm-8.414 51h-38v-50h38v4.586l-7.874 7.874-1.847 5.54h-10.279v16h8v4.184c-.847.302-1.514.969-1.816 1.816h-12.184v-4h-4v-6h4v-10h-4v-6h4v-4h4v4h10v-10h-10v4h-4v-4h-10v10h4v6h-4v10h4v6h-4v10h10v-4h12.184c.414 1.161 1.514 2 2.816 2 1.654 0 3-1.346 3-3 0-1.302-.839-2.402-2-2.816v-4.184h8v-13.613l1.54-.513.46-.46zm-28-12v6h-6v-6zm0-16v6h-6v-6zm-6-10v-6h6v6zm14 0v-6h6v6zm39.05-14.464-3.05 3.05-4.586-4.586 3.05-3.05c.613-.613 1.427-.95 2.293-.95 1.788 0 3.243 1.455 3.243 3.243 0 .866-.337 1.68-.95 2.293z"/></svg>